<svg width="30" height="30" viewBox="0 0 30 30" fill="none" xmlns="http://www.w3.org/2000/svg">
<path d="M6.74167 23.5545C7.94129 25 10.174 25 14.6394 25H15.3606C19.826 25 22.0587 25 23.2583 23.5545M6.74167 23.5545C5.54205 22.1091 5.95351 19.9146 6.77644 15.5257C7.36166 12.4045 7.65427 10.8439 8.76517 9.92196M6.74167 23.5545C6.74167 23.5545 6.74167 23.5545 6.74167 23.5545ZM23.2583 23.5545C24.458 22.1091 24.0465 19.9146 23.2236 15.5257C22.6383 12.4045 22.3457 10.8439 21.2348 9.92196M23.2583 23.5545C23.2583 23.5545 23.2583 23.5545 23.2583 23.5545ZM21.2348 9.92196C20.1239 9 18.5362 9 15.3606 9H14.6394C11.4638 9 9.87606 9 8.76517 9.92196M21.2348 9.92196C21.2348 9.92196 21.2348 9.92196 21.2348 9.92196ZM8.76517 9.92196C8.76516 9.92196 8.76517 9.92196 8.76517 9.92196Z" stroke="#1C274C" stroke-width="1.5"/>
<path d="M12 9V8C12 6.34315 13.3431 5 15 5C16.6569 5 18 6.34315 18 8V9" stroke="#1C274C" stroke-width="1.5" stroke-linecap="round"/>
</svg>
