<svg width="22" height="20" viewBox="0 0 22 20" fill="none" xmlns="http://www.w3.org/2000/svg">
<path d="M7.96173 16.9108L8.42605 16.3218L7.96173 16.9108ZM11 3.50057L10.4596 4.02067C10.601 4.16757 10.7961 4.25057 11 4.25057C11.2039 4.25057 11.399 4.16757 11.5404 4.02067L11 3.50057ZM14.0383 16.9108L14.5026 17.4998L14.0383 16.9108ZM8.42605 16.3218C6.91039 15.127 5.25307 13.9602 3.93829 12.4797C2.64922 11.0282 1.75 9.33444 1.75 7.13704H0.25C0.25 9.80257 1.3605 11.836 2.81672 13.4757C4.24723 15.0865 6.07077 16.3752 7.49742 17.4998L8.42605 16.3218ZM1.75 7.13704C1.75 4.98617 2.96537 3.18246 4.62436 2.42413C6.23607 1.68741 8.40166 1.88251 10.4596 4.02067L11.5404 2.98047C9.0985 0.44346 6.26409 0.0253255 4.00076 1.0599C1.78471 2.07286 0.25 4.42497 0.25 7.13704H1.75ZM7.49742 17.4998C8.00965 17.9036 8.55954 18.3342 9.11682 18.6599C9.67386 18.9854 10.3096 19.2499 11 19.2499V17.7499C10.6904 17.7499 10.3261 17.6292 9.87361 17.3648C9.42132 17.1005 8.95208 16.7365 8.42605 16.3218L7.49742 17.4998ZM14.5026 17.4998C15.9292 16.3752 17.7528 15.0865 19.1833 13.4757C20.6395 11.836 21.75 9.80257 21.75 7.13704H20.25C20.25 9.33444 19.3508 11.0282 18.0617 12.4797C16.7469 13.9602 15.0896 15.127 13.574 16.3218L14.5026 17.4998ZM21.75 7.13704C21.75 4.42497 20.2153 2.07286 17.9992 1.0599C15.7359 0.0253255 12.9015 0.44346 10.4596 2.98047L11.5404 4.02067C13.5983 1.88251 15.7639 1.68741 17.3756 2.42413C19.0346 3.18246 20.25 4.98617 20.25 7.13704H21.75ZM13.574 16.3218C13.0479 16.7365 12.5787 17.1005 12.1264 17.3648C11.6739 17.6292 11.3096 17.7499 11 17.7499V19.2499C11.6904 19.2499 12.3261 18.9854 12.8832 18.6599C13.4405 18.3342 13.9903 17.9036 14.5026 17.4998L13.574 16.3218Z" fill="#1C274C"/>
</svg>
