<svg width="30" height="30" viewBox="0 0 30 30" fill="none" xmlns="http://www.w3.org/2000/svg">
<circle cx="15" cy="15" r="3" stroke="#1C274C" stroke-width="1.5"/>
<path d="M16.7654 5.15224C16.3978 5 15.9319 5 15 5C14.0681 5 13.6022 5 13.2346 5.15224C12.7446 5.35523 12.3552 5.74458 12.1522 6.23463C12.0596 6.45834 12.0233 6.7185 12.0091 7.09799C11.9883 7.65568 11.7023 8.17189 11.219 8.45093C10.7357 8.72996 10.1456 8.71954 9.65221 8.45876C9.31646 8.2813 9.07302 8.18262 8.83295 8.15102C8.30706 8.08178 7.7752 8.22429 7.35438 8.5472C7.03876 8.78938 6.80579 9.1929 6.33985 9.99993C5.87391 10.807 5.64094 11.2105 5.58901 11.6049C5.51977 12.1308 5.66228 12.6627 5.98519 13.0835C6.13258 13.2756 6.33972 13.437 6.6612 13.639C7.13381 13.936 7.43791 14.4419 7.43787 15C7.43784 15.5581 7.13376 16.0639 6.6612 16.3608C6.33966 16.5629 6.13249 16.7244 5.98509 16.9165C5.66219 17.3373 5.51968 17.8691 5.58891 18.395C5.64084 18.7894 5.87381 19.193 6.33975 20C6.80569 20.807 7.03866 21.2106 7.35428 21.4527C7.7751 21.7756 8.30696 21.9181 8.83285 21.8489C9.07291 21.8173 9.31634 21.7186 9.65205 21.5412C10.1455 21.2804 10.7356 21.27 11.2189 21.549C11.7023 21.8281 11.9883 22.3443 12.0091 22.9021C12.0233 23.2815 12.0596 23.5417 12.1522 23.7654C12.3552 24.2554 12.7446 24.6448 13.2346 24.8478C13.6022 25 14.0681 25 15 25C15.9319 25 16.3978 25 16.7654 24.8478C17.2554 24.6448 17.6448 24.2554 17.8478 23.7654C17.9404 23.5417 17.9767 23.2815 17.9909 22.902C18.0117 22.3443 18.2977 21.8281 18.781 21.549C19.2643 21.2699 19.8544 21.2804 20.3479 21.5412C20.6836 21.7186 20.927 21.8172 21.1671 21.8488C21.693 21.9181 22.2248 21.7756 22.6456 21.4527C22.9612 21.2105 23.1942 20.807 23.6602 19.9999C24.1261 19.1929 24.3591 18.7894 24.411 18.395C24.4802 17.8691 24.3377 17.3372 24.0148 16.9164C23.8674 16.7243 23.6603 16.5628 23.3387 16.3608C22.8662 16.0639 22.5621 15.558 22.5621 14.9999C22.5622 14.4418 22.8662 13.9361 23.3388 13.6392C23.6603 13.4371 23.8675 13.2757 24.0149 13.0835C24.3378 12.6627 24.4803 12.1309 24.4111 11.605C24.3592 11.2106 24.1262 10.807 23.6603 10C23.1943 9.19297 22.9613 8.78945 22.6457 8.54727C22.2249 8.22436 21.693 8.08185 21.1672 8.15109C20.9271 8.18269 20.6837 8.28136 20.348 8.4588C19.8545 8.71959 19.2644 8.73002 18.7811 8.45096C18.2978 8.17191 18.0117 7.65566 17.9909 7.09794C17.9767 6.71848 17.9404 6.45833 17.8478 6.23463C17.6448 5.74458 17.2554 5.35523 16.7654 5.15224Z" stroke="#1C274C" stroke-width="1.5"/>
</svg>
